# xmcd
#
# Track frame offsets: 
#        150
#        19858
#        39948
#        61717
#        80150
#        100394
#        120732
#        135331
#        158842
#        181339
#        202454
#        221671
#
# Disc length: 3197 seconds
#
# Revision: 3
# Processed by: cddbd v1.5.2PL0 Copyright (c) Steve Scherf et al.
# Submitted via: ExactAudioCopy v1.0b3
#
DISCID=a70c7b0c
DTITLE=The-Dream - Love Hate
DYEAR=2007
DGENRE=Soul
TTITLE0=Shawty Is da Sh*! (feat. Fabolous)
TTITLE1=I Luv Your Girl
TTITLE2=Fast Car
TTITLE3=Nikki
TTITLE4=She Needs My Love
TTITLE5=Falsetto
TTITLE6=Playin' in Her Hair
TTITLE7=Purple Kisses
TTITLE8=Ditch That...
TTITLE9=Luv Songs
TTITLE10=Livin' a Lie (feat. Rihanna)
TTITLE11=Mama
EXTD=
EXTT0=
EXTT1=
EXTT2=
EXTT3=
EXTT4=
EXTT5=
EXTT6=
EXTT7=
EXTT8=
EXTT9=
EXTT10=
EXTT11=
PLAYORDER=
